<svg width="48" height="47" viewBox="0 0 48 47" fill="none" xmlns="http://www.w3.org/2000/svg">
<path d="M20.2731 1.97955C21.3868 -0.2772 24.6066 -0.2772 25.7203 1.97955L31.0258 12.7301L42.8901 14.4535C45.3808 14.8135 46.3753 17.8781 44.5731 19.6353L42.5368 21.6198C41.462 21.0158 40.3152 20.5501 39.1236 20.2338L41.7268 17.6958L30.3643 16.0443C29.877 15.9732 29.4144 15.7847 29.0161 15.4951C28.6179 15.2054 28.296 14.8232 28.0783 14.3816L22.9956 4.09005L17.9151 14.3816C17.6974 14.8232 17.3755 15.2054 16.9773 15.4951C16.579 15.7847 16.1164 15.9732 15.6291 16.0443L4.26657 17.6958L12.4881 25.7103C13.2036 26.4078 13.5298 27.4136 13.3611 28.399L11.4216 39.7143L20.7568 34.807C20.7906 36.0266 20.9773 37.2078 21.2923 38.3373L12.3868 43.0195C10.1593 44.1895 7.55382 42.2995 7.97682 39.8178L10.0041 28.0031L1.42032 19.6331C-0.38193 17.878 0.612571 14.8158 3.10332 14.4535L14.9676 12.7301L20.2731 1.97955ZM47.7501 34.375C47.7501 31.093 46.4463 27.9454 44.1255 25.6246C41.8048 23.3038 38.6571 22.0001 35.3751 22.0001C32.093 22.0001 28.9454 23.3038 26.6246 25.6246C24.3039 27.9454 23.0001 31.093 23.0001 34.375C23.0001 37.6571 24.3039 40.8047 26.6246 43.1255C28.9454 45.4463 32.093 46.75 35.3751 46.75C38.6571 46.75 41.8048 45.4463 44.1255 43.1255C46.4463 40.8047 47.7501 37.6571 47.7501 34.375ZM36.5001 35.5L36.5023 41.1318C36.5023 41.4302 36.3838 41.7163 36.1728 41.9273C35.9618 42.1383 35.6757 42.2568 35.3773 42.2568C35.079 42.2568 34.7928 42.1383 34.5818 41.9273C34.3708 41.7163 34.2523 41.4302 34.2523 41.1318V35.5H28.6161C28.3177 35.5 28.0316 35.3815 27.8206 35.1705C27.6096 34.9596 27.4911 34.6734 27.4911 34.375C27.4911 34.0767 27.6096 33.7905 27.8206 33.5796C28.0316 33.3686 28.3177 33.25 28.6161 33.25H34.2501V27.6228C34.2501 27.3244 34.3686 27.0383 34.5796 26.8273C34.7906 26.6163 35.0767 26.4978 35.3751 26.4978C35.6734 26.4978 35.9596 26.6163 36.1706 26.8273C36.3815 27.0383 36.5001 27.3244 36.5001 27.6228V33.2478H42.1183C42.4167 33.2478 42.7028 33.3663 42.9138 33.5773C43.1248 33.7883 43.2433 34.0744 43.2433 34.3728C43.2433 34.6712 43.1248 34.9573 42.9138 35.1683C42.7028 35.3793 42.4167 35.4978 42.1183 35.4978L36.5001 35.5Z" fill="black"/>
</svg>
