<svg width="29" height="29" viewBox="0 0 29 29" fill="none" xmlns="http://www.w3.org/2000/svg">
<path d="M4.53125 3.625C4.2909 3.625 4.06039 3.72048 3.89043 3.89043C3.72048 4.06039 3.625 4.2909 3.625 4.53125C3.625 4.7716 3.72048 5.00211 3.89043 5.17207C4.06039 5.34202 4.2909 5.4375 4.53125 5.4375H4.97713C5.17391 5.43784 5.36524 5.50222 5.52219 5.62092C5.67915 5.73962 5.79321 5.90618 5.84713 6.09544L8.72175 16.1548C8.88434 16.7225 9.22733 17.2218 9.69887 17.5773C10.1704 17.9327 10.7449 18.125 11.3354 18.125H19.6167C20.1602 18.1251 20.6912 17.9623 21.1412 17.6576C21.5913 17.353 21.9397 16.9204 22.1415 16.4158L24.8131 9.73494C24.923 9.46003 24.9638 9.1624 24.932 8.86807C24.9003 8.57375 24.7969 8.29168 24.631 8.04652C24.465 7.80136 24.2416 7.60058 23.9801 7.46173C23.7186 7.32288 23.4272 7.25019 23.1311 7.25H8.062L7.58894 5.597C7.42676 5.02928 7.08419 4.52977 6.61298 4.174C6.14177 3.81822 5.56756 3.62552 4.97713 3.625H4.53125ZM10.4654 15.6546L8.58038 9.0625H23.1311L20.4577 15.7434C20.3904 15.9114 20.2743 16.0554 20.1244 16.1568C19.9745 16.2582 19.7977 16.3125 19.6167 16.3125H11.3354C11.1386 16.3122 10.9473 16.2478 10.7903 16.1291C10.6333 16.0104 10.5193 15.8438 10.4654 15.6546ZM11.7812 25.375C12.1383 25.375 12.4918 25.3047 12.8217 25.168C13.1515 25.0314 13.4512 24.8312 13.7037 24.5787C13.9562 24.3262 14.1564 24.0265 14.293 23.6967C14.4297 23.3668 14.5 23.0133 14.5 22.6562C14.5 22.2992 14.4297 21.9457 14.293 21.6158C14.1564 21.286 13.9562 20.9863 13.7037 20.7338C13.4512 20.4813 13.1515 20.2811 12.8217 20.1445C12.4918 20.0078 12.1383 19.9375 11.7812 19.9375C11.0602 19.9375 10.3687 20.2239 9.8588 20.7338C9.34894 21.2437 9.0625 21.9352 9.0625 22.6562C9.0625 23.3773 9.34894 24.0688 9.8588 24.5787C10.3687 25.0886 11.0602 25.375 11.7812 25.375ZM11.7812 23.5625C11.5409 23.5625 11.3104 23.467 11.1404 23.2971C10.9705 23.1271 10.875 22.8966 10.875 22.6562C10.875 22.4159 10.9705 22.1854 11.1404 22.0154C11.3104 21.8455 11.5409 21.75 11.7812 21.75C12.0216 21.75 12.2521 21.8455 12.4221 22.0154C12.592 22.1854 12.6875 22.4159 12.6875 22.6562C12.6875 22.8966 12.592 23.1271 12.4221 23.2971C12.2521 23.467 12.0216 23.5625 11.7812 23.5625ZM19.0312 25.375C19.3883 25.375 19.7418 25.3047 20.0717 25.168C20.4015 25.0314 20.7012 24.8312 20.9537 24.5787C21.2062 24.3262 21.4064 24.0265 21.543 23.6967C21.6797 23.3668 21.75 23.0133 21.75 22.6562C21.75 22.2992 21.6797 21.9457 21.543 21.6158C21.4064 21.286 21.2062 20.9863 20.9537 20.7338C20.7012 20.4813 20.4015 20.2811 20.0717 20.1445C19.7418 20.0078 19.3883 19.9375 19.0312 19.9375C18.3102 19.9375 17.6187 20.2239 17.1088 20.7338C16.5989 21.2437 16.3125 21.9352 16.3125 22.6562C16.3125 23.3773 16.5989 24.0688 17.1088 24.5787C17.6187 25.0886 18.3102 25.375 19.0312 25.375ZM19.0312 23.5625C18.7909 23.5625 18.5604 23.467 18.3904 23.2971C18.2205 23.1271 18.125 22.8966 18.125 22.6562C18.125 22.4159 18.2205 22.1854 18.3904 22.0154C18.5604 21.8455 18.7909 21.75 19.0312 21.75C19.2716 21.75 19.5021 21.8455 19.6721 22.0154C19.842 22.1854 19.9375 22.4159 19.9375 22.6562C19.9375 22.8966 19.842 23.1271 19.6721 23.2971C19.5021 23.467 19.2716 23.5625 19.0312 23.5625Z" fill="black"/>
</svg>
