<svg width="54" height="54" viewBox="0 0 54 54" fill="none" xmlns="http://www.w3.org/2000/svg">
<path d="M27 18C27 18 27 18 28.71 15.75C30.69 13.14 33.615 11.25 37.125 11.25C42.7275 11.25 47.25 15.7725 47.25 21.375C47.25 23.4675 46.62 25.4025 45.54 27C43.7175 29.7225 27 47.25 27 47.25C27 47.25 10.2825 29.7225 8.46 27C7.38 25.4025 6.75 23.4675 6.75 21.375C6.75 15.7725 11.2725 11.25 16.875 11.25C20.385 11.25 23.3325 13.14 25.29 15.75C27 18 27 18 27 18Z" fill="#F24822"/>
<path d="M27 18C27 18 27 18 25.29 15.75C23.31 13.14 20.385 11.25 16.875 11.25C11.2725 11.25 6.75 15.7725 6.75 21.375C6.75 23.4675 7.38 25.4025 8.46 27C10.2825 29.7225 27 47.25 27 47.25M27 18C27 18 27 18 28.71 15.75C30.69 13.14 33.615 11.25 37.125 11.25C42.7275 11.25 47.25 15.7725 47.25 21.375C47.25 23.4675 46.62 25.4025 45.54 27C43.7175 29.7225 27 47.25 27 47.25" stroke="#F24822" stroke-width="2" stroke-linecap="round" stroke-linejoin="round"/>
</svg>
