<svg width="54" height="54" viewBox="0 0 54 54" fill="none" xmlns="http://www.w3.org/2000/svg">
<path fill-rule="evenodd" clip-rule="evenodd" d="M27 2.8125C25.6388 2.8125 24.3855 3.15 23.0153 3.717C21.69 4.266 20.151 5.07375 18.2362 6.0795L13.5833 8.52075C11.232 9.75375 9.35325 10.7415 7.8975 11.7113C6.3945 12.717 5.2335 13.7745 4.38975 15.2077C3.54825 16.6365 3.17025 18.1845 2.988 20.0273C2.8125 21.816 2.8125 24.0142 2.8125 26.7817V27.2183C2.8125 29.9858 2.8125 32.184 2.988 33.9727C3.17025 35.8177 3.5505 37.3635 4.38975 38.7922C5.2335 40.2255 6.39225 41.283 7.89975 42.2887C9.351 43.2585 11.232 44.2463 13.5833 45.4792L18.2362 47.9205C20.151 48.9263 21.69 49.734 23.0153 50.283C24.3878 50.85 25.6388 51.1875 27 51.1875C28.3612 51.1875 29.6145 50.85 30.9847 50.283C32.31 49.734 33.849 48.9263 35.7638 47.9205L40.4167 45.4815C42.768 44.2463 44.6468 43.2585 46.1003 42.2887C47.6077 41.283 48.7665 40.2255 49.6102 38.7922C50.4517 37.3635 50.8298 35.8155 51.012 33.9727C51.1875 32.184 51.1875 29.9857 51.1875 27.2205V26.7795C51.1875 24.0143 51.1875 21.816 51.012 20.0273C50.8298 18.1823 50.4495 16.6365 49.6102 15.2077C48.7665 13.7745 47.6077 12.717 46.1003 11.7113C44.649 10.7415 42.768 9.75375 40.4167 8.52075L35.7638 6.0795C33.849 5.07375 32.31 4.266 30.9847 3.717C29.6122 3.15 28.3612 2.8125 27 2.8125ZM19.7325 9.1035C21.735 8.05275 23.139 7.31925 24.3045 6.83775C25.4385 6.3675 26.2372 6.1875 27 6.1875C27.765 6.1875 28.5615 6.3675 29.6955 6.83775C30.861 7.31925 32.2628 8.05275 34.2653 9.1035L38.7653 11.466C41.2178 12.7508 42.939 13.6575 44.2282 14.517C44.8627 14.9423 45.36 15.336 45.765 15.732L38.2703 19.4782L19.1453 9.41175L19.7325 9.1035ZM15.6263 11.259L15.2347 11.466C12.7822 12.7508 11.061 13.6575 9.774 14.517C9.22526 14.8736 8.7108 15.2803 8.23725 15.732L27 25.1145L34.5533 21.3345L16.0898 11.619C15.9166 11.5252 15.76 11.4035 15.6263 11.259ZM6.6105 18.6908C6.498 19.1723 6.41025 19.719 6.34725 20.3557C6.18975 21.9622 6.1875 23.994 6.1875 26.8673V27.1305C6.1875 30.006 6.1875 32.0377 6.34725 33.642C6.5025 35.2103 6.79725 36.225 7.299 37.08C7.7985 37.9282 8.52075 38.646 9.774 39.483C11.061 40.3425 12.7822 41.2492 15.2347 42.534L19.7347 44.8965C21.7372 45.9473 23.139 46.6808 24.3045 47.1623C24.6705 47.3138 25.0065 47.4375 25.3125 47.5335V28.0417L6.6105 18.6908ZM28.6875 47.5312C28.9935 47.4367 29.3295 47.3138 29.6955 47.1623C30.861 46.6808 32.2628 45.9473 34.2653 44.8965L38.7653 42.534C41.2178 41.247 42.939 40.3425 44.2282 39.483C45.4792 38.646 46.2015 37.9282 46.7033 37.08C47.205 36.225 47.4975 35.2125 47.6528 33.642C47.8103 32.0377 47.8125 30.006 47.8125 27.1327V26.8695C47.8125 23.994 47.8125 21.9623 47.6528 20.358C47.5998 19.7981 47.5118 19.242 47.3895 18.693L39.9375 22.4167V29.25C39.9375 29.6976 39.7597 30.1268 39.4432 30.4432C39.1268 30.7597 38.6976 30.9375 38.25 30.9375C37.8024 30.9375 37.3732 30.7597 37.0568 30.4432C36.7403 30.1268 36.5625 29.6976 36.5625 29.25V24.1065L28.6875 28.044V47.5312Z" fill="black"/>
</svg>
