<svg width="54" height="54" viewBox="0 0 54 54" fill="none" xmlns="http://www.w3.org/2000/svg">
<path d="M20.1712 40.5C19.9038 42.3772 18.968 44.0948 17.5358 45.3374C16.1036 46.58 14.2711 47.2641 12.375 47.2641C10.4789 47.2641 8.64643 46.58 7.21422 45.3374C5.78202 44.0948 4.84623 42.3772 4.57875 40.5H2.25V13.5C2.25 12.9033 2.48705 12.331 2.90901 11.909C3.33097 11.4871 3.90326 11.25 4.5 11.25H36C36.5967 11.25 37.169 11.4871 37.591 11.909C38.0129 12.331 38.25 12.9033 38.25 13.5V18H45L51.75 27.126V40.5H47.1712C46.9003 42.3745 45.9631 44.0886 44.5313 45.3284C43.0995 46.5681 41.269 47.2505 39.375 47.2505C37.481 47.2505 35.6505 46.5681 34.2187 45.3284C32.7869 44.0886 31.8497 42.3745 31.5788 40.5H20.1712ZM33.75 15.75H6.75V33.8625C7.63776 32.9562 8.73135 32.2778 9.93769 31.885C11.144 31.4922 12.4274 31.3967 13.6786 31.6066C14.9298 31.8165 16.1117 32.3256 17.1239 33.0905C18.136 33.8555 18.9483 34.8536 19.4918 36H32.2582C32.6362 35.2057 33.1425 34.4835 33.75 33.8625V15.75ZM38.25 29.25H47.25V28.6087L42.732 22.5H38.25V29.25ZM39.375 42.75C40.2704 42.75 41.1291 42.3943 41.7623 41.7612C42.3954 41.128 42.7511 40.2693 42.7511 39.3739C42.7511 38.4785 42.3954 37.6197 41.7623 36.9866C41.1291 36.3534 40.2704 35.9977 39.375 35.9977C38.4796 35.9977 37.6209 36.3534 36.9877 36.9866C36.3546 37.6197 35.9989 38.4785 35.9989 39.3739C35.9989 40.2693 36.3546 41.128 36.9877 41.7612C37.6209 42.3943 38.4796 42.75 39.375 42.75ZM15.75 39.375C15.75 38.9318 15.6627 38.4929 15.4931 38.0834C15.3235 37.674 15.0749 37.3019 14.7615 36.9885C14.4481 36.6751 14.076 36.4265 13.6666 36.2569C13.2571 36.0873 12.8182 36 12.375 36C11.9318 36 11.4929 36.0873 11.0834 36.2569C10.674 36.4265 10.3019 36.6751 9.98851 36.9885C9.67512 37.3019 9.42652 37.674 9.25691 38.0834C9.0873 38.4929 9 38.9318 9 39.375C9 40.2701 9.35558 41.1285 9.98851 41.7615C10.6214 42.3944 11.4799 42.75 12.375 42.75C13.2701 42.75 14.1286 42.3944 14.7615 41.7615C15.3944 41.1285 15.75 40.2701 15.75 39.375Z" fill="black"/>
</svg>
