<svg width="34" height="34" viewBox="0 0 34 34" fill="none" xmlns="http://www.w3.org/2000/svg">
<path fill-rule="evenodd" clip-rule="evenodd" d="M19.8106 3.60109C19.9338 3.8405 19.965 4.14792 20.0259 4.76275C20.1421 5.92442 20.2002 6.50525 20.4438 6.82542C20.5957 7.02421 20.7974 7.17926 21.0286 7.27481C21.2597 7.37036 21.5121 7.403 21.7599 7.36942C22.1566 7.317 22.6099 6.94725 23.5138 6.20775C23.9912 5.81534 24.2306 5.61984 24.487 5.53767C24.8136 5.43331 25.1669 5.45093 25.4815 5.58725C25.7294 5.69492 25.949 5.91309 26.3839 6.34942L27.6504 7.61592C28.0868 8.05225 28.3049 8.27042 28.4126 8.51834C28.5489 8.83291 28.5665 9.18626 28.4622 9.51284C28.38 9.76925 28.1845 10.0087 27.7935 10.4861C27.0526 11.3913 26.6828 11.8433 26.629 12.2413C26.5958 12.4891 26.6288 12.7412 26.7246 12.9721C26.8204 13.203 26.9756 13.4045 27.1744 13.556C27.4932 13.7997 28.0754 13.8578 29.2385 13.9739C29.8519 14.0348 30.1593 14.066 30.4002 14.1893C30.704 14.3468 30.9405 14.609 31.066 14.9273C31.1666 15.1781 31.1666 15.4869 31.1666 16.1046V17.8953C31.1666 18.5129 31.1666 18.8218 31.0674 19.0711C30.9415 19.3905 30.7039 19.6532 30.3988 19.8106C30.1593 19.9338 29.8519 19.965 29.2371 20.0259C28.0754 20.1421 27.4946 20.2002 27.1744 20.4438C26.9756 20.5957 26.8206 20.7974 26.725 21.0286C26.6295 21.2597 26.5968 21.5121 26.6304 21.7599C26.6843 22.1566 27.054 22.6099 27.7935 23.5138C28.1845 23.9912 28.38 24.2292 28.4622 24.487C28.5665 24.8136 28.5489 25.1669 28.4126 25.4815C28.3049 25.7294 28.0868 25.9476 27.6504 26.3839L26.3839 27.649C25.9476 28.0868 25.7294 28.3049 25.4815 28.4112C25.1669 28.5475 24.8136 28.5651 24.487 28.4608C24.2306 28.3786 23.9912 28.1831 23.5138 27.7921C22.6085 27.0526 22.1566 26.6828 21.7599 26.6304C21.5121 26.5968 21.2597 26.6295 21.0286 26.725C20.7974 26.8206 20.5957 26.9756 20.4438 27.1744C20.2002 27.4932 20.1421 28.074 20.0259 29.2371C19.965 29.8519 19.9338 30.1593 19.8106 30.3988C19.6536 30.7036 19.3914 30.9412 19.0725 31.0674C18.8218 31.1666 18.5129 31.1666 17.8953 31.1666H16.1046C15.4869 31.1666 15.1781 31.1666 14.9288 31.0674C14.6094 30.9415 14.3466 30.7039 14.1893 30.3988C14.066 30.1593 14.0348 29.8519 13.9739 29.2371C13.8578 28.0754 13.7997 27.4946 13.556 27.1744C13.4043 26.9759 13.2028 26.8209 12.9719 26.7254C12.741 26.6299 12.489 26.5971 12.2413 26.6304C11.8433 26.6828 11.3913 27.0526 10.4861 27.7921C10.0087 28.1845 9.76925 28.38 9.51284 28.4622C9.18626 28.5665 8.83291 28.5489 8.51834 28.4126C8.27042 28.3049 8.05084 28.0868 7.61592 27.6504L6.34942 26.3839C5.91309 25.9476 5.69492 25.7294 5.58725 25.4815C5.45093 25.1669 5.43331 24.8136 5.53767 24.487C5.61984 24.2306 5.81534 23.9912 6.20634 23.5138C6.94725 22.6085 7.317 22.1566 7.36942 21.7585C7.40274 21.5109 7.36997 21.2588 7.27443 21.0279C7.17889 20.797 7.02398 20.5955 6.82542 20.4438C6.50667 20.2002 5.92442 20.1421 4.76134 20.0259C4.14792 19.965 3.8405 19.9338 3.59967 19.8106C3.29586 19.6531 3.05935 19.3909 2.93384 19.0725C2.83325 18.8218 2.83325 18.5129 2.83325 17.8953V16.1046C2.83325 15.4869 2.83325 15.1781 2.93242 14.9288C3.05834 14.6094 3.29596 14.3466 3.60109 14.1893C3.8405 14.066 4.14792 14.0348 4.76275 13.9739C5.92442 13.8578 6.50667 13.7997 6.82542 13.556C7.02424 13.4045 7.17942 13.203 7.27521 12.9721C7.37101 12.7412 7.404 12.4891 7.37084 12.2413C7.317 11.8433 6.94584 11.3913 6.20634 10.4847C5.81534 10.0073 5.61984 9.76925 5.53767 9.51142C5.43331 9.18484 5.45093 8.8315 5.58725 8.51692C5.69492 8.27042 5.91309 8.05084 6.34942 7.6145L7.61592 6.34942C8.05225 5.91309 8.27042 5.6935 8.51834 5.58725C8.83291 5.45093 9.18626 5.43331 9.51284 5.53767C9.76925 5.61984 10.0087 5.81534 10.4861 6.20634C11.3913 6.94584 11.8433 7.31559 12.2399 7.36942C12.4881 7.4031 12.7408 7.37037 12.9723 7.27456C13.2037 7.17874 13.4056 7.02328 13.5574 6.824C13.7983 6.50525 13.8578 5.92442 13.9739 4.76134C14.0348 4.14792 14.066 3.8405 14.1893 3.59967C14.3465 3.29533 14.6087 3.05828 14.9273 2.93242C15.1781 2.83325 15.4869 2.83325 16.1046 2.83325H17.8953C18.5129 2.83325 18.8218 2.83325 19.0711 2.93242C19.3905 3.05834 19.6532 3.29596 19.8106 3.60109ZM16.9999 22.6666C18.5028 22.6666 19.9442 22.0696 21.0069 21.0069C22.0696 19.9442 22.6666 18.5028 22.6666 16.9999C22.6666 15.497 22.0696 14.0557 21.0069 12.993C19.9442 11.9303 18.5028 11.3333 16.9999 11.3333C15.497 11.3333 14.0557 11.9303 12.993 12.993C11.9303 14.0557 11.3333 15.497 11.3333 16.9999C11.3333 18.5028 11.9303 19.9442 12.993 21.0069C14.0557 22.0696 15.497 22.6666 16.9999 22.6666Z" fill="black"/>
</svg>
